<?xml version="1.0" standalone="no"?>
<!DOCTYPE svg PUBLIC "-//W3C//DTD SVG 20010904//EN"
 "http://www.w3.org/TR/2001/REC-SVG-20010904/DTD/svg10.dtd">
<svg version="1.0" xmlns="http://www.w3.org/2000/svg"
 width="210.000000pt" height="210.000000pt" viewBox="0 0 210.000000 210.000000"
 preserveAspectRatio="xMidYMid meet">

<g transform="translate(0.000000,210.000000) scale(0.100000,-0.100000)"
fill="#000000" stroke="none">
<path d="M851 1802 c-95 -51 -93 -200 3 -246 100 -47 206 19 206 128 0 104
-115 168 -209 118z"/>
<path d="M1125 1692 c-3 -8 -4 -16 -2 -18 2 -2 39 -9 82 -15 253 -35 464 -212
551 -464 25 -70 28 -95 28 -205 1 -137 -12 -196 -65 -304 -33 -67 -34 -72 -14
-80 19 -7 63 78 96 184 34 107 34 283 0 390 -64 209 -189 358 -376 450 -120
60 -287 94 -300 62z"/>
<path d="M637 1548 c-92 -69 -168 -165 -212 -270 -15 -37 -15 -38 7 -38 18 0
29 13 50 58 37 79 111 168 190 226 39 30 64 55 61 63 -8 22 -25 15 -96 -39z"/>
<path d="M658 1367 c-102 -141 -115 -164 -102 -177 12 -13 16 -12 28 5 7 11
62 85 120 164 59 79 105 149 103 155 -11 33 -41 2 -149 -147z"/>
<path d="M1007 1504 c-3 -3 -4 -18 -1 -33 3 -17 -23 -101 -79 -251 l-83 -225
-82 -3 c-74 -3 -82 -5 -82 -22 0 -18 7 -20 70 -20 39 0 70 -4 70 -10 0 -9 -39
-112 -45 -118 -2 -2 -26 8 -54 23 -29 14 -56 23 -61 20 -22 -14 -7 -32 46 -58
30 -15 54 -31 52 -35 -2 -4 -25 -71 -52 -147 -27 -77 -51 -142 -54 -145 -8
-10 -120 118 -147 168 -21 38 -31 49 -46 45 -10 -3 -19 -7 -19 -9 0 -13 76
-128 110 -167 81 -91 241 -186 370 -218 135 -34 420 -5 420 42 0 23 -6 23 -61
3 -69 -25 -241 -30 -333 -10 -88 20 -256 100 -256 122 0 14 94 276 106 295 3
6 129 -53 279 -130 150 -77 276 -137 279 -134 19 20 -10 41 -156 114 -90 45
-213 108 -274 140 l-112 59 27 73 27 72 55 3 c52 3 57 1 74 -25 29 -44 47 -53
96 -51 l45 3 105 -124 c171 -203 155 -188 172 -171 13 13 0 33 -118 167 -132
151 -133 152 -128 193 5 37 2 45 -28 75 -19 19 -44 35 -56 35 -36 0 -73 -22
-80 -48 -4 -18 -10 -22 -27 -18 -11 3 -37 6 -57 6 l-36 0 73 196 c41 107 77
200 80 206 4 5 25 -25 48 -69 23 -43 116 -219 206 -390 120 -227 170 -313 183
-313 9 0 17 4 17 10 0 5 -71 143 -157 307 -86 164 -189 358 -228 432 -67 128
-83 150 -98 135z"/>
<path d="M320 1159 c-47 -19 -100 -81 -116 -136 -17 -58 -12 -107 16 -163 93
-183 373 -126 388 79 7 99 -30 171 -109 211 -42 22 -135 26 -179 9z"/>
<path d="M1502 559 c-90 -45 -127 -160 -82 -253 54 -113 200 -136 290 -46 93
93 65 247 -55 301 -53 24 -101 24 -153 -2z"/>
</g>
</svg>
